<?xml version="1.0" standalone="no"?>
<!DOCTYPE svg PUBLIC "-//W3C//DTD SVG 20010904//EN"
 "http://www.w3.org/TR/2001/REC-SVG-20010904/DTD/svg10.dtd">
<svg version="1.0" xmlns="http://www.w3.org/2000/svg"
 width="300.000000pt" height="102.000000pt" viewBox="0 0 300.000000 102.000000"
 preserveAspectRatio="xMidYMid meet">
<metadata>
Created by potrace 1.10, written by Peter Selinger 2001-2011
</metadata>
<g transform="translate(0.000000,102.000000) scale(0.100000,-0.100000)"
fill="#9900ff" stroke="none">
<path d="M280 876 c0 -26 46 -80 92 -108 47 -29 148 -50 148 -31 0 6 -24 35
-52 65 -37 38 -68 60 -102 71 -60 21 -86 22 -86 3z m91 -30 c32 -13 99 -69 99
-82 0 -23 -133 44 -150 76 -13 25 2 26 51 6z"/>
<path d="M420 700 c-89 -12 -141 -65 -159 -162 -29 -151 40 -288 163 -328 82
-26 236 13 308 78 57 52 71 85 71 168 -1 127 -62 207 -178 232 -68 15 -151 20
-205 12z m135 -26 c104 -15 139 -29 173 -69 23 -25 28 -40 24 -61 -4 -21 -2
-26 10 -22 11 5 14 -6 15 -58 0 -40 -4 -64 -11 -64 -6 0 -4 -5 4 -10 10 -6 11
-10 3 -10 -7 0 -13 -8 -13 -18 0 -21 -41 -61 -85 -85 -44 -24 -150 -57 -183
-57 -36 0 -92 19 -110 37 -8 7 -22 17 -32 23 -9 5 -28 31 -40 57 -19 38 -24
65 -24 133 0 102 21 154 74 184 34 20 102 36 130 30 8 -1 38 -6 65 -10z"/>
<path d="M665 590 c3 -5 8 -10 11 -10 2 0 4 5 4 10 0 6 -5 10 -11 10 -5 0 -7
-4 -4 -10z"/>
<path d="M634 542 c-7 -4 0 -17 18 -36 31 -32 39 -22 9 11 -11 12 -17 24 -14
27 9 8 0 7 -13 -2z"/>
<path d="M690 531 c0 -5 7 -15 17 -22 15 -13 15 -12 4 9 -12 23 -21 28 -21 13z"/>
<path d="M600 500 c0 -5 5 -10 11 -10 5 0 7 5 4 10 -3 6 -8 10 -11 10 -2 0 -4
-4 -4 -10z"/>
<path d="M630 476 c0 -17 16 -30 23 -19 3 5 -1 14 -9 21 -12 10 -14 10 -14 -2z"/>
<path d="M745 480 c3 -5 8 -10 11 -10 2 0 4 5 4 10 0 6 -5 10 -11 10 -5 0 -7
-4 -4 -10z"/>
<path d="M590 468 c0 -9 5 -20 10 -23 13 -8 13 5 0 25 -8 13 -10 13 -10 -2z"/>
<path d="M536 445 c4 -8 8 -15 10 -15 2 0 4 7 4 15 0 8 -4 15 -10 15 -5 0 -7
-7 -4 -15z"/>
<path d="M720 453 c0 -5 5 -15 10 -23 8 -12 10 -11 10 8 0 12 -4 22 -10 22 -5
0 -10 -3 -10 -7z"/>
<path d="M670 436 c0 -9 5 -16 10 -16 6 0 10 4 10 9 0 6 -4 13 -10 16 -5 3
-10 -1 -10 -9z"/>
<path d="M636 425 c4 -8 8 -15 10 -15 2 0 4 7 4 15 0 8 -4 15 -10 15 -5 0 -7
-7 -4 -15z"/>
<path d="M607 390 c3 -11 12 -20 19 -20 11 0 10 5 -3 20 -10 11 -18 20 -19 20
-1 0 0 -9 3 -20z"/>
<path d="M657 378 c-7 -46 5 -61 14 -18 4 19 4 39 0 43 -5 5 -11 -6 -14 -25z"/>
<path d="M565 380 c3 -5 11 -10 16 -10 6 0 7 5 4 10 -3 6 -11 10 -16 10 -6 0
-7 -4 -4 -10z"/>
<path d="M481 364 c0 -11 3 -14 6 -6 3 7 2 16 -1 19 -3 4 -6 -2 -5 -13z"/>
<path d="M510 371 c0 -6 5 -13 10 -16 6 -3 10 1 10 9 0 9 -4 16 -10 16 -5 0
-10 -4 -10 -9z"/>
<path d="M710 373 c0 -5 5 -15 10 -23 8 -12 10 -11 10 8 0 12 -4 22 -10 22 -5
0 -10 -3 -10 -7z"/>
<path d="M576 305 c8 -37 14 -45 14 -19 0 10 -5 26 -10 34 -8 11 -9 7 -4 -15z"/>
<path d="M631 304 c0 -11 3 -14 6 -6 3 7 2 16 -1 19 -3 4 -6 -2 -5 -13z"/>
<path d="M1997 537 c-15 -10 -17 -27 -15 -107 l3 -95 50 -3 c28 -1 56 2 64 7
24 15 1 31 -45 31 -43 0 -44 1 -44 33 0 30 2 32 33 32 22 0 32 5 32 15 0 11
-10 15 -33 13 -30 -1 -33 1 -30 25 3 23 8 27 41 30 24 2 37 8 37 18 0 18 -69
19 -93 1z"/>
<path d="M1455 503 c-9 -21 -22 -64 -30 -95 -13 -55 -12 -58 6 -58 13 0 19 7
19 24 0 18 7 25 31 30 46 9 45 9 58 -35 12 -39 40 -51 33 -13 -12 61 -73 184
-92 184 -5 0 -17 -17 -25 -37z m55 -59 c0 -6 -11 -14 -25 -16 -22 -5 -24 -3
-18 21 3 14 8 30 11 35 6 10 32 -22 32 -40z"/>
<path d="M2156 488 c-11 -96 -8 -158 9 -158 11 0 15 12 15 45 0 38 3 45 19 45
11 0 22 -8 26 -17 11 -34 45 -67 57 -55 7 7 4 19 -11 40 -25 36 -26 45 -6 62
38 32 -4 90 -65 90 l-37 0 -7 -52z m82 10 c17 -17 15 -23 -13 -36 -38 -17 -42
-15 -37 18 5 32 28 40 50 18z"/>
<path d="M1002 520 c-39 -9 -46 -15 -37 -30 4 -6 16 -8 27 -4 29 9 38 -11 38
-84 0 -47 3 -63 13 -59 8 2 12 27 12 75 0 71 0 72 27 72 34 0 44 16 19 29 -22
12 -51 13 -99 1z"/>
<path d="M1147 517 c-5 -13 22 -101 44 -144 15 -28 26 -21 49 30 l18 40 22
-42 c11 -23 26 -41 33 -38 14 4 63 99 73 140 5 21 3 27 -10 27 -9 0 -18 -6
-20 -12 -13 -46 -39 -108 -44 -108 -4 0 -17 23 -30 51 -12 27 -27 47 -32 44
-4 -3 -16 -29 -26 -58 l-17 -52 -10 30 c-5 17 -12 45 -15 64 -7 36 -26 51 -35
28z"/>
<path d="M1665 525 c-5 -2 -22 -6 -37 -9 -16 -4 -28 -13 -28 -22 0 -12 7 -14
30 -9 33 7 32 9 34 -105 1 -24 6 -35 16 -35 12 0 15 14 14 73 l-2 72 29 0 c31
0 40 23 13 34 -16 6 -52 7 -69 1z"/>
<path d="M1813 519 c-44 -13 -46 -43 -3 -34 l30 7 0 -71 c0 -64 11 -94 28 -76
3 3 5 37 4 76 l-2 69 30 0 c19 0 30 5 30 14 0 26 -54 33 -117 15z"/>
</g>
</svg>
